<svg xmlns="http://www.w3.org/2000/svg" viewBox="0 0 500 200" width="800" height="533">
  <defs>
    <linearGradient id="bg" x1="0%" y1="0%" x2="100%" y2="100%">
      <stop offset="0%" style="stop-color:#0A1628"/>
      <stop offset="100%" style="stop-color:#162c52"/>
    </linearGradient>
  </defs>
  <!-- Background -->
  <rect width="500" height="200" fill="url(#bg)" rx="8"/>
  <!-- Gold accent line -->
  <rect x="0" y="0" width="500" height="4" fill="#F5A623"/>
  <!-- Car body -->
  <path d="M 60 140 L 60 115 Q 65 90 100 80 L 150 60 Q 185 45 230 45 L 300 45 Q 350 45 375 60 L 400 80 Q 430 90 440 115 L 440 140 Z M 115 140 Q 115 155 130 155 Q 145 155 145 140 Z M 355 140 Q 355 155 370 155 Q 385 155 385 140 Z" fill="#1e3a5f" stroke="#F5A623" stroke-width="2"/>
  <path d="M 115 80 Q 120 60 150 55 L 220 55 L 220 80 Z M 230 55 L 300 55 L 320 80 L 230 80 Z" fill="#B8D4F0" opacity="0.7"/>
  <circle cx="130" cy="148" r="22" fill="#1a2540" stroke="#F5A623" stroke-width="4"/><circle cx="130" cy="148" r="10" fill="#F5A623"/>
  <circle cx="370" cy="148" r="22" fill="#1a2540" stroke="#F5A623" stroke-width="4"/><circle cx="370" cy="148" r="10" fill="#F5A623"/>
  <!-- Category badge -->
  <rect x="20" y="14" width="70" height="22" rx="11" fill="#27AE60" opacity="0.9"/>
  <text x="55" y="29" font-family="Arial,sans-serif" font-size="11" font-weight="700" fill="white" text-anchor="middle">SUV</text>
  <!-- Vehicle name -->
  <text x="250" y="182" font-family="Arial,sans-serif" font-size="16" font-weight="700" fill="#F5A623" text-anchor="middle">Toyota Rumion</text>
</svg>